<?xml version="1.0"?><svg width="640" height="480" xmlns="http://www.w3.org/2000/svg">
 <title>LDS TEMPLE</title>
 <metadata id="metadata7">image/svg+xml</metadata>
 <g>
  <title>Layer 1</title>
  <g id="layer1" display="inline"/>
  <g id="layer2" display="inline" opacity="0.5">
   <path d="m348.78125,1.65625l-1.09375,1.90625l1.6875,0.4375l1.59375,1.3125l-0.4375,3.34375l-0.1875,1.5c0,0 -0.060211,0.3591 0,0.53125c0.056702,0.16193 0.28125,0.34375 0.28125,0.34375l2.15625,2.0625l0,10.1875l0.96875,0.21875l0.5625,6.6875l1.46875,0l0,2.40625c-2.121765,0.46756 -3.71875,2.331451 -3.71875,4.59375c0,1.72263 0.936615,3.234798 2.3125,4.0625l-1.15625,0l-11.375,76.03125l0,5.59375l-1.28125,0l0,-5.375l-1.1875,0l-1.8125,-9.125c0.342682,-0.137878 0.59375,-0.467377 0.59375,-0.84375c0,-0.501862 -0.441467,-0.90625 -0.96875,-0.90625c-0.527283,0 -0.96875,0.404388 -0.96875,0.90625c0,0.382629 0.273193,0.709869 0.625,0.84375l-1.84375,9.125l-1.15625,0l0,6.53125l0.53125,0l0,28.375l-0.75,0l0,-3.8125l-1.40625,0l-2.09375,-11.8125c0.468933,-0.188782 0.8125,-0.641266 0.8125,-1.15625c0,-0.686737 -0.590942,-1.25 -1.3125,-1.25c-0.721558,0 -1.3125,0.563263 -1.3125,1.25c0,0.52356 0.331085,0.972992 0.8125,1.15625l-2.09375,11.8125l-1.40625,0l0,7.75l0.78125,0l0,24l-1.75,0l0,-4.9375l-1.625,0l-2.46875,-12.28125c0.486877,-0.195984 0.875,-0.65274 0.875,-1.1875c0,-0.713013 -0.625824,-1.28125 -1.375,-1.28125c-0.749176,0 -1.375,0.568237 -1.375,1.28125c0,0.54364 0.375153,0.997162 0.875,1.1875l-2.46875,12.28125l-1.625,0l0,9.21875l0.875,0l0,75l-8.1875,0l0,-4.53125l-7.46875,0l0,7.40625l-5.9375,0l0,-4.125l-7.4375,0l0,7l-8.1875,0l0,-68.6875l0.71875,0l0,-7.4375l-1.3125,0l-2,-9.90625c0.404022,-0.153839 0.6875,-0.529358 0.6875,-0.96875c0,-0.576294 -0.48819,-1.0625 -1.09375,-1.0625c-0.60553,0 -1.09375,0.486206 -1.09375,1.0625c0,0.43222 0.293976,0.810333 0.6875,0.96875l-2,9.90625l-1.3125,0l0,4l-1.40625,0l0,-19.40625l0.625,0l0,-6.25l-1.125,0l-1.71875,-9.5625c0.389099,-0.148132 0.6875,-0.514343 0.6875,-0.9375c0,-0.555054 -0.479279,-1 -1.0625,-1c-0.583221,0 -1.0625,0.444946 -1.0625,1c0,0.416229 0.277222,0.784912 0.65625,0.9375l-1.6875,9.5625l-1.15625,0l0,3.0625l-0.59375,0l0,-22.9375l0.4375,0l0,-5.25l-0.96875,0l-1.46875,-7.375c0.284363,-0.108185 0.5,-0.378235 0.5,-0.6875c0,-0.40564 -0.355072,-0.75 -0.78125,-0.75c-0.426178,0 -0.78125,0.34436 -0.78125,0.75c0,0.304199 0.223022,0.57605 0.5,0.6875l-1.46875,7.375l-0.96875,0l0,4.3125l-1.0625,0l0,-4.5l-9.1875,-61.46875l-1,0c1.09314,-0.618439 1.84375,-1.733192 1.84375,-3.03125c0,-1.704353 -1.253754,-3.158257 -2.9375,-3.5l0,-3.34375c0.760712,-0.294533 1.28125,-0.982758 1.28125,-1.8125c0,-0.829742 -0.520538,-1.517982 -1.28125,-1.8125l0,-3.15625l-1.5625,0l0,3.15625c-0.761658,0.294098 -1.3125,0.982094 -1.3125,1.8125c0,0.830414 0.550842,1.518402 1.3125,1.8125l0,3.34375c-1.684296,0.341339 -2.96875,1.795288 -2.96875,3.5c0,1.298058 0.75061,2.412811 1.84375,3.03125l-1,0l-9.1875,61.46875l0,4.5l-1.0625,0l0,-4.3125l-0.9375,0l-1.46875,-7.375c0.276993,-0.11145 0.46875,-0.383301 0.46875,-0.6875c0,-0.40564 -0.355087,-0.75 -0.78125,-0.75c-0.426163,0 -0.75,0.34436 -0.75,0.75c0,0.309265 0.184402,0.579315 0.46875,0.6875l-1.46875,7.375l-0.9375,0l0,5.25l0.40625,0l0,22.9375l-0.59375,0l0,-3.0625l-1.125,0l-1.71875,-9.5625c0.379013,-0.152588 0.6875,-0.521271 0.6875,-0.9375c0,-0.555054 -0.479294,-1 -1.0625,-1c-0.583206,0 -1.0625,0.444946 -1.0625,1c0,0.423157 0.267136,0.789368 0.65625,0.9375l-1.6875,9.5625l-1.125,0l0,6.25l0.59375,0l0,19.40625l-1.40625,0l0,-4l-1.3125,0l-1.96875,-9.90625c0.393524,-0.158417 0.6875,-0.53653 0.6875,-0.96875c0,-0.576294 -0.519455,-1.0625 -1.125,-1.0625c-0.605545,0 -1.09375,0.486206 -1.09375,1.0625c0,0.439392 0.283493,0.814911 0.6875,0.96875l-2,9.90625l-1.28125,0l0,7.4375l0.6875,0l0,279.875l286.15625,0l0,-279.875l0.6875,0l0,-7.4375l-1.28125,0l-2,-9.90625c0.403992,-0.153839 0.6875,-0.529358 0.6875,-0.96875c0,-0.576294 -0.48822,-1.0625 -1.09375,-1.0625c-0.60553,0 -1.09375,0.486206 -1.09375,1.0625c0,0.43222 0.293945,0.810333 0.6875,0.96875l-2,9.90625l-1.3125,0l0,4l-1.40625,0l0,-19.40625l0.625,0l0,-6.25l-1.15625,0l-1.6875,-9.5625c0.389099,-0.148132 0.6875,-0.514343 0.6875,-0.9375c0,-0.555054 -0.479309,-1 -1.0625,-1c-0.583221,0 -1.0625,0.444946 -1.0625,1c0,0.416229 0.277222,0.784912 0.65625,0.9375l-1.6875,9.5625l-1.15625,0l0,3.0625l-0.59375,0l0,-22.9375l0.4375,0l0,-5.25l-0.96875,0l-1.46875,-7.375c0.284363,-0.108185 0.5,-0.378235 0.5,-0.6875c0,-0.40564 -0.355072,-0.75 -0.78125,-0.75c-0.426178,0 -0.78125,0.34436 -0.78125,0.75c0,0.304199 0.223022,0.57605 0.5,0.6875l-1.5,7.375l-0.9375,0l0,4.3125l-1.0625,0l0,-4.5l-9.1875,-61.46875l-1,0c1.09314,-0.618439 1.84375,-1.733192 1.84375,-3.03125c0,-1.704353 -1.253754,-3.158257 -2.9375,-3.5l0,-3.34375c0.746735,-0.300568 1.28125,-0.99234 1.28125,-1.8125c0,-0.82016 -0.534515,-1.511932 -1.28125,-1.8125l0,-3.15625l-1.5625,0l0,3.15625c-0.761658,0.294098 -1.3125,0.982094 -1.3125,1.8125c0,0.830414 0.550842,1.518402 1.3125,1.8125l0,3.34375c-1.684296,0.341339 -2.96875,1.795288 -2.96875,3.5c0,1.298058 0.75061,2.412811 1.84375,3.03125l-1,0l-9.1875,61.46875l0,4.5l-1.0625,0l0,-4.3125l-0.9375,0l-1.46875,-7.375c0.276978,-0.11145 0.46875,-0.383301 0.46875,-0.6875c0,-0.40564 -0.355072,-0.75 -0.78125,-0.75c-0.426178,0 -0.75,0.34436 -0.75,0.75c0,0.309265 0.184387,0.579315 0.46875,0.6875l-1.46875,7.375l-0.9375,0l0,5.25l0.40625,0l0,22.9375l-0.59375,0l0,-3.0625l-1.125,0l-1.71875,-9.5625c0.378998,-0.152588 0.6875,-0.521271 0.6875,-0.9375c0,-0.555054 -0.479279,-1 -1.0625,-1c-0.583221,0 -1.0625,0.444946 -1.0625,1c0,0.423157 0.26712,0.789368 0.65625,0.9375l-1.6875,9.5625l-1.15625,0l0,6.25l0.625,0l0,19.40625l-1.40625,0l0,-4l-1.3125,0l-1.96875,-9.90625c0.393524,-0.158417 0.6875,-0.53653 0.6875,-0.96875c0,-0.576294 -0.51947,-1.0625 -1.125,-1.0625c-0.60553,0 -1.09375,0.486206 -1.09375,1.0625c0,0.439392 0.283478,0.814911 0.6875,0.96875l-2,9.90625l-1.28125,0l0,7.4375l0.6875,0l0,68.6875l-8.15625,0l0,-7l-7.46875,0l0,4.125l-5.9375,0l0,-7.40625l-7.46875,0l0,4.53125l-8.1875,0l0,-75l0.875,0l0,-9.21875l-1.625,0l-2.4375,-12.28125c0.499878,-0.190338 0.84375,-0.64386 0.84375,-1.1875c0,-0.713013 -0.625793,-1.28125 -1.375,-1.28125c-0.749176,0 -1.34375,0.568237 -1.34375,1.28125c0,0.53476 0.356873,0.991516 0.84375,1.1875l-2.46875,12.28125l-1.59375,0l0,4.9375l-1.78125,0l0,-24l0.78125,0l0,-7.75l-1.40625,0l-2.09375,-11.8125c0.481445,-0.183258 0.8125,-0.63269 0.8125,-1.15625c0,-0.686737 -0.590942,-1.25 -1.3125,-1.25c-0.721558,0 -1.3125,0.563263 -1.3125,1.25c0,0.514984 0.374817,0.967468 0.84375,1.15625l-2.09375,11.8125l-1.40625,0l0,3.8125l-0.78125,0l0,-28.375l0.5625,0l0,-6.53125l-1.1875,0l-1.8125,-9.125c0.351807,-0.133881 0.59375,-0.461121 0.59375,-0.84375c0,-0.501862 -0.441467,-0.90625 -0.96875,-0.90625c-0.527283,0 -0.96875,0.404388 -0.96875,0.90625c0,0.376373 0.282318,0.705872 0.625,0.84375l-1.84375,9.125l-1.15625,0l0,5.375l-1.3125,0l0,-5.59375l-11.375,-76.03125l-1.15625,0c1.375885,-0.827702 2.3125,-2.33987 2.3125,-4.0625c0,-2.262299 -1.596985,-4.12619 -3.71875,-4.59375l0,-2.6875l1.15625,-0.875l0,-5.25l0.875,-0.5625l-0.0625,-7.28125l2.65625,5.59375c0,0 0.33551,-0.473181 0.40625,-0.71875c0.113373,-0.393591 -0.09375,-1.09375 -0.09375,-1.09375l-2.15625,-6.875l-0.34375,-0.6875l-0.4375,-0.3125l-1.71875,0c0,0 0.020081,-2.1134 -0.1875,-3.15625c-0.070709,-0.35498 -0.3125,-1.0625 -0.3125,-1.0625c0,0 -0.231079,-0.6041 -0.46875,-0.78125c-0.298309,-0.22238 -0.659363,-0.20728 -1.03125,-0.21875c-0.350433,-0.0108 -0.648438,-0.0109 -0.9375,0.1875c-0.162567,0.11157 -0.40625,0.46875 -0.40625,0.46875l-0.125,0.5l-4.6875,-4.375l-1.15625,-1.75zm9.65625,218.15625c5.2164,0 9.4375,4.221069 9.4375,9.4375c0,0.07373 0,0.145447 0,0.21875l0,40.84375l-18.875,0l0,-40.84375c-0.002014,-0.073303 0,-0.14502 0,-0.21875c0,-5.216431 4.221008,-9.4375 9.4375,-9.4375zm-117.9375,24.25c3.94458,0 7.125,3.211304 7.125,7.15625c0,0.055725 0,0.10083 0,0.15625l0,21.40625l-14.28125,0l0,-21.40625c0,-0.05542 0,-0.100525 0,-0.15625c0,-3.944946 3.211182,-7.15625 7.15625,-7.15625zm232.625,0c3.944702,0 7.125,3.211304 7.125,7.15625c0,0.055725 0,0.10083 0,0.15625l0,21.40625l-14.28125,0l0,-21.40625c0,-0.05542 0,-0.100525 0,-0.15625c0,-3.944946 3.211243,-7.15625 7.15625,-7.15625zm-114.6875,45.5c5.2164,0 9.4375,4.221069 9.4375,9.4375c0,0.07373 0,0.145447 0,0.21875l0,60.59375l-18.875,0l0,-60.59375c-0.002014,-0.073303 0,-0.14502 0,-0.21875c0,-5.216431 4.221008,-9.4375 9.4375,-9.4375zm-117.9375,1.375c3.94458,0 7.125,3.180054 7.125,7.125c0,0.055725 0,0.10083 0,0.15625l0,21.40625l-14.28125,0l0,-21.40625c0,-0.05542 0,-0.100525 0,-0.15625c0,-3.944946 3.211182,-7.125 7.15625,-7.125zm232.625,0c3.944702,0 7.125,3.180054 7.125,7.125c0,0.055725 0,0.10083 0,0.15625l0,21.40625l-14.28125,0l0,-21.40625c0,-0.05542 0,-0.100525 0,-0.15625c0,-3.944946 3.211243,-7.125 7.15625,-7.125zm-175.625,3.0625c4.685974,0 8.46875,4.126648 8.46875,9.1875c0,5.060852 -3.782776,9.15625 -8.46875,9.15625c-4.685974,0 -8.5,-4.095398 -8.5,-9.15625c0,-5.060852 3.814026,-9.1875 8.5,-9.1875zm118.59375,0c4.685974,0 8.5,4.126648 8.5,9.1875c0,5.060852 -3.814026,9.15625 -8.5,9.15625c-4.685974,0 -8.46875,-4.095398 -8.46875,-9.15625c0,-5.060852 3.782776,-9.1875 8.46875,-9.1875zm-175.59375,38.125c3.94458,0 7.125,3.180115 7.125,7.125c0,0.055725 0,0.13208 0,0.1875l0,22.53125l-14.28125,0l0,-22.53125c0,-0.05542 0,-0.131714 0,-0.1875c0,-3.944885 3.211182,-7.125 7.15625,-7.125zm57,0c3.94458,0 7.125,3.180115 7.125,7.125c0,0.055725 0,0.13208 0,0.1875l0,22.53125l-14.28125,0l0,-22.53125l0.03125,0c0,-0.05542 -0.03125,-0.131714 -0.03125,-0.1875c0,-3.944885 3.211212,-7.125 7.15625,-7.125zm118.59375,0c3.94458,0 7.15625,3.180115 7.15625,7.125c0,0.055725 -0.03125,0.13208 -0.03125,0.1875l0.03125,0l0,22.53125l-14.28125,0l0,-22.53125c0,-0.05542 0,-0.131714 0,-0.1875c0,-3.944885 3.179962,-7.125 7.125,-7.125zm57.03125,0c3.944702,0 7.125,3.180115 7.125,7.125c0,0.055725 0,0.13208 0,0.1875l0,22.53125l-14.28125,0l0,-22.53125c0,-0.05542 0,-0.131714 0,-0.1875c0,-3.944885 3.211243,-7.125 7.15625,-7.125zm-232.625,44.8125c3.94458,0 7.125,3.180115 7.125,7.125c0,0.055786 0,0.10083 0,0.15625l0,23.78125l-14.28125,0l0,-23.78125c0,-0.05542 0,-0.100159 0,-0.15625c0,-3.944885 3.211182,-7.125 7.15625,-7.125zm232.625,0c3.944702,0 7.125,3.180115 7.125,7.125c0,0.055786 0,0.10083 0,0.15625l0,23.78125l-14.28125,0l0,-23.78125c0,-0.05542 0,-0.100159 0,-0.15625c0,-3.944885 3.211243,-7.125 7.15625,-7.125zm-175.625,2.75c4.685974,0 8.46875,4.095398 8.46875,9.15625c0,5.060852 -3.782776,9.15625 -8.46875,9.15625c-4.685974,0 -8.5,-4.095398 -8.5,-9.15625c0,-5.060852 3.814026,-9.15625 8.5,-9.15625zm118.59375,0c4.685974,0 8.5,4.095398 8.5,9.15625c0,5.060852 -3.814026,9.15625 -8.5,9.15625c-4.685974,0 -8.46875,-4.095398 -8.46875,-9.15625c0,-5.060852 3.782776,-9.15625 8.46875,-9.15625zm-57.65625,2.03125c5.2164,0 9.4375,4.221008 9.4375,9.4375c0,0.07373 0,0.145447 0,0.21875l0,60.59375l-18.875,0l0,-60.59375c-0.002014,-0.073303 0,-0.14502 0,-0.21875c0,-5.216492 4.221008,-9.4375 9.4375,-9.4375zm-61.75,31.5625c6.141235,0 11.09375,4.952515 11.09375,11.09375c0,0.041504 0.000458,0.083618 0,0.125l0,27.46875l-22.21875,0l0,-27.46875c-0.000458,-0.041321 0,-0.083618 0,-0.125c0,-6.141235 4.983765,-11.09375 11.125,-11.09375zm120.25,0c6.141235,0 11.09375,4.952515 11.09375,11.09375c0,0.041504 0.000458,0.083618 0,0.125l0,27.46875l-22.21875,0l0,-27.46875c-0.000458,-0.041321 0,-0.083618 0,-0.125c0,-6.141235 4.983765,-11.09375 11.125,-11.09375zm-176.4375,7.625c3.94458,0 7.125,3.180115 7.125,7.125c0,0.055725 0,0.132019 0,0.1875l0,23.75l-14.28125,0l0,-23.75c0,-0.055359 0,-0.132019 0,-0.1875c0,-3.944885 3.211182,-7.125 7.15625,-7.125zm232.625,0c3.944702,0 7.125,3.180115 7.125,7.125c0,0.055725 0,0.132019 0,0.1875l0,23.75l-14.28125,0l0,-23.75c0,-0.055359 0,-0.132019 0,-0.1875c0,-3.944885 3.211243,-7.125 7.15625,-7.125z" id="path5887" fill="#3f3f3f"/>
   <g id="g6449" fill="#ffffff"/>
   <g id="g6476" fill="#ffffff"/>
   <g id="g6491" fill="#ffffff"/>
  </g>
 </g>
</svg>